<svg xmlns="http://www.w3.org/2000/svg" version="1.1" xmlns:xlink="http://www.w3.org/1999/xlink" xmlns:svgjs="http://svgjs.com/svgjs" width="1440" height="750" preserveAspectRatio="none" viewBox="0 0 1440 750"><g mask="url(&quot;#SvgjsMask1938&quot;)" fill="none"><rect width="1440" height="750" x="0" y="0" fill="url(#SvgjsLinearGradient1939)"></rect><path d="M87 750L837 0L1515 0L765 750z" fill="url(#SvgjsLinearGradient1940)"></path><path d="M548.2 750L1298.2 0L1646.2 0L896.2 750z" fill="url(#SvgjsLinearGradient1940)"></path><path d="M1436 750L686 0L284 0L1034 750z" fill="url(#SvgjsLinearGradient1941)"></path><path d="M883.8 750L133.79999999999995 0L-542.7 0L207.29999999999995 750z" fill="url(#SvgjsLinearGradient1941)"></path><path d="M761.8467277760165 750L1440 71.84672777601645L1440 750z" fill="url(#SvgjsLinearGradient1940)"></path><path d="M0 750L678.1532722239835 750L 0 71.84672777601645z" fill="url(#SvgjsLinearGradient1941)"></path></g><defs><mask id="SvgjsMask1938"><rect width="1440" height="750" fill="#ffffff"></rect></mask><linearGradient x1="11.98%" y1="123%" x2="88.02%" y2="-23%" gradientUnits="userSpaceOnUse" id="SvgjsLinearGradient1939"><stop stop-color="#0e2a47" offset="0"></stop><stop stop-color="rgba(3, 9, 51, 0.92)" offset="1"></stop></linearGradient><linearGradient x1="0%" y1="100%" x2="100%" y2="0%" id="SvgjsLinearGradient1940"><stop stop-color="rgba(15, 70, 185, 0.2)" offset="0"></stop><stop stop-opacity="0" stop-color="rgba(15, 70, 185, 0.2)" offset="0.66"></stop></linearGradient><linearGradient x1="100%" y1="100%" x2="0%" y2="0%" id="SvgjsLinearGradient1941"><stop stop-color="rgba(15, 70, 185, 0.2)" offset="0"></stop><stop stop-opacity="0" stop-color="rgba(15, 70, 185, 0.2)" offset="0.66"></stop></linearGradient></defs></svg>